<svg xmlns="http://www.w3.org/2000/svg" viewBox="0 0 220 260" fill="none">
<defs>
<linearGradient id="lf" x1="0" y1="1" x2="0" y2="0">
<stop offset="0" stop-color="#33472f"/><stop offset="0.5" stop-color="#5f7a4e"/><stop offset="1" stop-color="#92a861"/>
</linearGradient>
<linearGradient id="st" x1="0" y1="1" x2="1" y2="0">
<stop offset="0" stop-color="#4a6342"/><stop offset="1" stop-color="#6e8a52"/>
</linearGradient>
</defs>
<path d="M22,252 Q 36,96 182,20" fill="none" stroke="url(#st)" stroke-width="6" stroke-linecap="round"/>
<path d="M22,252 Q 36,96 182,20" fill="none" stroke="#3c5044" stroke-width="2.2" stroke-linecap="round" stroke-opacity="0.5"/>
<g transform="translate(31.3,198.4) rotate(-45.1) scale(1.00)"><path d="M0,0 C 30.0,-25.0 16.5,-64.0 0,-78.0 C -16.5,-64.0 -30.0,-25.0 0,0 Z" fill="url(#lf)" stroke="#2c3f31" stroke-width="0.8" stroke-opacity="0.35"/><path d="M0,0 L0,-74" stroke="#2c3f31" stroke-width="1" stroke-opacity="0.4" fill="none"/></g><g transform="translate(42.3,165.6) rotate(82.1) scale(1.05)"><path d="M0,0 C 30.0,-25.0 16.5,-64.0 0,-78.0 C -16.5,-64.0 -30.0,-25.0 0,0 Z" fill="url(#lf)" stroke="#2c3f31" stroke-width="0.8" stroke-opacity="0.35"/><path d="M0,0 L0,-74" stroke="#2c3f31" stroke-width="1" stroke-opacity="0.4" fill="none"/></g><g transform="translate(58.4,132.6) rotate(-29.8) scale(1.00)"><path d="M0,0 C 30.0,-25.0 16.5,-64.0 0,-78.0 C -16.5,-64.0 -30.0,-25.0 0,0 Z" fill="url(#lf)" stroke="#2c3f31" stroke-width="0.8" stroke-opacity="0.35"/><path d="M0,0 L0,-74" stroke="#2c3f31" stroke-width="1" stroke-opacity="0.4" fill="none"/></g><g transform="translate(77.3,104.6) rotate(97.7) scale(0.92)"><path d="M0,0 C 30.0,-25.0 16.5,-64.0 0,-78.0 C -16.5,-64.0 -30.0,-25.0 0,0 Z" fill="url(#lf)" stroke="#2c3f31" stroke-width="0.8" stroke-opacity="0.35"/><path d="M0,0 L0,-74" stroke="#2c3f31" stroke-width="1" stroke-opacity="0.4" fill="none"/></g><g transform="translate(100.0,78.9) rotate(-15.0) scale(0.82)"><path d="M0,0 C 30.0,-25.0 16.5,-64.0 0,-78.0 C -16.5,-64.0 -30.0,-25.0 0,0 Z" fill="url(#lf)" stroke="#2c3f31" stroke-width="0.8" stroke-opacity="0.35"/><path d="M0,0 L0,-74" stroke="#2c3f31" stroke-width="1" stroke-opacity="0.4" fill="none"/></g><g transform="translate(124.1,57.3) rotate(111.3) scale(0.70)"><path d="M0,0 C 30.0,-25.0 16.5,-64.0 0,-78.0 C -16.5,-64.0 -30.0,-25.0 0,0 Z" fill="url(#lf)" stroke="#2c3f31" stroke-width="0.8" stroke-opacity="0.35"/><path d="M0,0 L0,-74" stroke="#2c3f31" stroke-width="1" stroke-opacity="0.4" fill="none"/></g><g transform="translate(148.9,39.4) rotate(-3.3) scale(0.56)"><path d="M0,0 C 30.0,-25.0 16.5,-64.0 0,-78.0 C -16.5,-64.0 -30.0,-25.0 0,0 Z" fill="url(#lf)" stroke="#2c3f31" stroke-width="0.8" stroke-opacity="0.35"/><path d="M0,0 L0,-74" stroke="#2c3f31" stroke-width="1" stroke-opacity="0.4" fill="none"/></g><g transform="translate(170.5,26.2) rotate(120.6) scale(0.42)"><path d="M0,0 C 30.0,-25.0 16.5,-64.0 0,-78.0 C -16.5,-64.0 -30.0,-25.0 0,0 Z" fill="url(#lf)" stroke="#2c3f31" stroke-width="0.8" stroke-opacity="0.35"/><path d="M0,0 L0,-74" stroke="#2c3f31" stroke-width="1" stroke-opacity="0.4" fill="none"/></g>
<circle cx="182.0" cy="20.0" r="4.2" fill="#86a05f"/>
</svg>